<mxfile>
    <diagram id="nkWxl_p0y-_F47H55C92" name="Page-1">
        <mxGraphModel dx="734" dy="430" grid="1" gridSize="10" guides="1" tooltips="1" connect="1" arrows="1" fold="1" page="1" pageScale="1" pageWidth="827" pageHeight="1169" math="0" shadow="0">
            <root>
                <mxCell id="0"/>
                <mxCell id="1" parent="0"/>
                <mxCell id="2" value="Admins" style="swimlane;fontStyle=1;align=center;verticalAlign=top;childLayout=stackLayout;horizontal=1;startSize=26;horizontalStack=0;resizeParent=1;resizeParentMax=0;resizeLast=0;collapsible=1;marginBottom=0;" vertex="1" parent="1">
                    <mxGeometry x="300" y="180" width="220" height="120" as="geometry"/>
                </mxCell>
                <mxCell id="3" value="id Admin : AUTOINCREMENT.&#10;&#10;NomAdmin : VARCHAR 255&#10;PrenomAdmin : VARCHAR 255&#10;RoleAdmin : VARCHAR 5-20&#10;PasswordAdmin : VARCHAR 255&#10;" style="text;strokeColor=none;fillColor=none;align=left;verticalAlign=top;spacingLeft=4;spacingRight=4;overflow=hidden;rotatable=0;points=[[0,0.5],[1,0.5]];portConstraint=eastwest;" vertex="1" parent="2">
                    <mxGeometry y="26" width="220" height="94" as="geometry"/>
                </mxCell>
                <mxCell id="6" value="1 ... n" style="endArrow=none;html=1;entryX=0.554;entryY=0.974;entryDx=0;entryDy=0;entryPerimeter=0;" edge="1" parent="1" target="3">
                    <mxGeometry x="0.7571" width="50" height="50" relative="1" as="geometry">
                        <mxPoint x="422" y="400" as="sourcePoint"/>
                        <mxPoint x="450" y="290" as="targetPoint"/>
                        <mxPoint as="offset"/>
                    </mxGeometry>
                </mxCell>
                <mxCell id="11" value="1 .. n&lt;br&gt;" style="edgeLabel;html=1;align=center;verticalAlign=middle;resizable=0;points=[];" vertex="1" connectable="0" parent="6">
                    <mxGeometry x="-0.5618" relative="1" as="geometry">
                        <mxPoint as="offset"/>
                    </mxGeometry>
                </mxCell>
                <mxCell id="7" value="Consult" style="ellipse;whiteSpace=wrap;html=1;" vertex="1" parent="1">
                    <mxGeometry x="390" y="330" width="60" height="20" as="geometry"/>
                </mxCell>
                <mxCell id="14" value="Dashboard" style="swimlane;fontStyle=1;align=center;verticalAlign=middle;childLayout=stackLayout;horizontal=1;startSize=29;horizontalStack=0;resizeParent=1;resizeParentMax=0;resizeLast=0;collapsible=0;marginBottom=0;html=1;" vertex="1" parent="1">
                    <mxGeometry x="344" y="400" width="140" height="130" as="geometry"/>
                </mxCell>
                <mxCell id="16" value="parentsInfos();&lt;br style=&quot;padding: 0px ; margin: 0px&quot;&gt;professeursInfos();&lt;br style=&quot;padding: 0px ; margin: 0px&quot;&gt;studentsInfos();&lt;br style=&quot;padding: 0px ; margin: 0px&quot;&gt;adminsinfo();" style="text;html=1;strokeColor=none;fillColor=none;align=left;verticalAlign=middle;spacingLeft=4;spacingRight=4;overflow=hidden;rotatable=0;points=[[0,0.5],[1,0.5]];portConstraint=eastwest;" vertex="1" parent="14">
                    <mxGeometry y="29" width="140" height="101" as="geometry"/>
                </mxCell>
                <mxCell id="18" value="Stats" style="swimlane;fontStyle=1;align=center;verticalAlign=middle;childLayout=stackLayout;horizontal=1;startSize=29;horizontalStack=0;resizeParent=1;resizeParentMax=0;resizeLast=0;collapsible=0;marginBottom=0;html=1;" vertex="1" parent="1">
                    <mxGeometry x="610" y="400" width="170" height="130" as="geometry"/>
                </mxCell>
                <mxCell id="19" value="id stats: AUTOINCREMENT." style="text;html=1;strokeColor=none;fillColor=none;align=left;verticalAlign=middle;spacingLeft=4;spacingRight=4;overflow=hidden;rotatable=0;points=[[0,0.5],[1,0.5]];portConstraint=eastwest;" vertex="1" parent="18">
                    <mxGeometry y="29" width="170" height="101" as="geometry"/>
                </mxCell>
            </root>
        </mxGraphModel>
    </diagram>
</mxfile>